<mxfile host="app.diagrams.net" modified="2024-01-31T03:29:48.090Z" agent="Mozilla/5.0 (Windows NT 10.0; Win64; x64) AppleWebKit/537.36 (KHTML, like Gecko) Chrome/121.0.0.0 Safari/537.36" version="23.0.1" etag="SSw_SxLgOpBLqatC_72C" type="github">
  <diagram name="Page-1" id="NKbttKWFOSc3HwiqZLIo">
    <mxGraphModel>
      <root>
        <mxCell id="0" />
        <mxCell id="1" parent="0" />
      </root>
    </mxGraphModel>
  </diagram>
</mxfile>
